<?xml version="1.0" ?>
<svg xmlns="http://www.w3.org/2000/svg" width="640px" height="576px">
<rect width="640" height="64" x="0" y="0" fill="#608FFC" />
<text x="200" y="40" font-size="24" font-family="Times New Roman" font-weight="bold" fill="dark">H.264 Annex B stream</text>
<line x1="0" y1="64" x2="0" y2="128" style="stroke:rgb(254,67,101);stroke-width:1"/>
<line x1="640" y1="64" x2="640" y2="128" style="stroke:rgb(254,67,101);stroke-width:1"/>
<rect width="70" height="64" x="0" y="128" fill="#FC9D9A" />
<rect width="115" height="64" x="70" y="128" fill="#FFCC00" />
<rect width="70" height="64" x="185" y="128" fill="#FC9D9A" />
<rect width="115" height="64" x="255" y="128" fill="#FFCC00" />
<rect width="85" height="64" x="370" y="128" fill="#F0F0F0" />
<rect width="70" height="64" x="455" y="128" fill="#FC9D9A" />
<rect width="115" height="64" x="525" y="128" fill="#FFCC00" />
<text x="8" y="154" font-size="24" font-family="Times New Roman" font-weight="bold" fill="dark">Start</text>
<text x="8" y="182" font-size="24" font-family="Times New Roman" font-weight="bold" fill="dark">Code</text>
<text x="95" y="168" font-size="24" font-family="Times New Roman" font-weight="bold" fill="dark">NALU</text>
<text x="193" y="154" font-size="24" font-family="Times New Roman" font-weight="bold" fill="dark">Start</text>
<text x="193" y="182" font-size="24" font-family="Times New Roman" font-weight="bold" fill="dark">Code</text>
<text x="280" y="168" font-size="24" font-family="Times New Roman" font-weight="bold" fill="dark">NALU</text>
<text x="404" y="168" font-size="24" font-family="Times New Roman" font-weight="bold" fill="dark">...</text>
<text x="463" y="154" font-size="24" font-family="Times New Roman" font-weight="bold" fill="dark">Start</text>
<text x="463" y="182" font-size="24" font-family="Times New Roman" font-weight="bold" fill="dark">Code</text>
<text x="550" y="168" font-size="24" font-family="Times New Roman" font-weight="bold" fill="dark">NALU</text>
<line x1="255" y1="192" x2="0" y2="256" style="stroke:rgb(254,67,101);stroke-width:1"/>
<line x1="370" y1="192" x2="640" y2="256" style="stroke:rgb(254,67,101);stroke-width:1"/>
<rect width="185" height="64" x="0" y="256" fill="#C8C8A9" />
<rect width="455" height="64" x="185" y="256" fill="#83AF9B" />
<text x="20" y="296" font-size="24" font-family="Times New Roman" font-weight="bold" fill="dark">NALU header</text>
<text x="300" y="296" font-size="24" font-family="Times New Roman" font-weight="bold" fill="dark">NALU payload(EBSP)</text>
<line x1="185" y1="320" x2="0" y2="384" style="stroke:rgb(254,67,101);stroke-width:1"/>
<line x1="640" y1="320" x2="640" y2="384" style="stroke:rgb(254,67,101);stroke-width:1"/>
<rect width="115" height="64" x="0" y="384" fill="#DE7D2C" />
<rect width="70" height="64" x="115" y="384" fill="#14446A" />
<rect width="115" height="64" x="185" y="384" fill="#DE7D2C" />
<rect width="70" height="64" x="300" y="384" fill="#14446A" />
<rect width="155" height="64" x="370" y="384" fill="#F0F0F0" />
<rect width="115" height="64" x="525" y="384" fill="#DE7D2C" />
<text x="12" y="424" font-size="24" font-family="Times New Roman" font-weight="bold" fill="dark">RBSP P1</text>
<text x="125" y="424" font-size="24" font-family="Times New Roman" font-weight="bold" fill="dark">0x03</text>
<text x="197" y="424" font-size="24" font-family="Times New Roman" font-weight="bold" fill="dark">RBSP P2</text>
<text x="310" y="424" font-size="24" font-family="Times New Roman" font-weight="bold" fill="dark">0x03</text>
<text x="440" y="424" font-size="24" font-family="Times New Roman" font-weight="bold" fill="dark">...</text>
<text x="537" y="424" font-size="24" font-family="Times New Roman" font-weight="bold" fill="dark">RBSP Pn</text>
<line x1="0" y1="448" x2="0" y2="512" style="stroke:rgb(254,67,101);stroke-width:1"/>
<line x1="640" y1="448" x2="640" y2="512" style="stroke:rgb(254,67,101);stroke-width:1"/>
<rect width="360" height="64" x="0" y="512" fill="#608FFC" />
<rect width="185" height="64" x="360" y="512" fill="#FFCC00" />
<rect width="95" height="64" x="545" y="512" fill="#608FFC" />
<text x="150" y="552" font-size="24" font-family="Times New Roman" font-weight="bold" fill="dark">SODB</text>
<text x="380" y="552" font-size="24" font-family="Times New Roman" font-weight="bold" fill="dark">RBSP Stop bit</text>
<text x="565" y="552" font-size="24" font-family="Times New Roman" font-weight="bold" fill="dark">0 bits</text>
</svg>